<?xml version="1.0" encoding="UTF-8"?>
<svg id="Layer_2" data-name="Layer 2" xmlns="http://www.w3.org/2000/svg" viewBox="0 0 632.34 129.76">
  <g id="Layer_1-2" data-name="Layer 1">
    <g>
      <g>
        <path d="M144.4,69.32c.79-1.25,1.22-2.7,1.24-4.21l.11-9.84c.03-2.34-.97-4.58-2.73-6.13l-6.16-5.43c-1.45-1.28-3.31-1.99-5.25-2.02h-.99c1.12-3.34,2.75-6.2,4.23-8.79l.5-.87c1.44-2.54,1.39-5.68-.13-8.17-1.45-2.38-4.1-3.87-6.9-3.87-.01,0-.02,0-.04,0-.94-.13-5.06-1.61-6.97-4.05-1.29-1.65-2.03-4.17-2.2-7.48-.17-3.38-2.45-6.31-5.68-7.3-.77-.24-1.56-.36-2.37-.36-2.52,0-4.92,1.2-6.44,3.21-1.42,1.89-6.78,5.14-9.75,5.14h-.04c-6.09-.06-11.97-2.45-15.35-6.23-1.5-1.68-3.66-2.66-5.92-2.68h-.09c-2.22,0-4.37.93-5.88,2.55-3.4,3.64-9.24,5.9-15.23,5.9-.08,0-.17,0-.25,0-2.97-.03-8.28-3.41-9.68-5.35-1.51-2.09-3.96-3.34-6.54-3.34-.74,0-1.49.1-2.2.31-3.25.92-5.6,3.81-5.84,7.18-.24,3.31-1.03,5.82-2.35,7.43-1.96,2.4-6.13,3.8-7.04,3.9-.08,0-.16,0-.24,0-2.77,0-5.31,1.39-6.8,3.72-1.57,2.46-1.69,5.59-.3,8.17l.48.88c1.42,2.62,2.99,5.52,4.04,8.87h-.15c-1.88,0-3.71.66-5.16,1.86l-7.21,6c-1.82,1.51-2.88,3.74-2.9,6.11L0,74.99c-.03,2.37.99,4.62,2.77,6.17l7.35,6.39c.28.24.58.47.9.67,2.23,11.89,8.99,21.11,20.1,27.42,9.4,5.33,19.71,7.46,27.24,9.01l.14.03c2.88.6,5.36,1.11,6.88,1.63.13.06.39.25.56.4,1.5,1.9,3.82,3.03,6.24,3.06h.09c2.42,0,4.67-1.06,6.21-2.92.18-.15.44-.33.57-.39,1.54-.49,4.07-.95,7.01-1.49h.05c7.56-1.4,17.92-3.31,27.42-8.43,10.84-5.85,17.7-14.5,20.41-25.72l4.84.05c4.4,0,8.01-3.58,8.06-7.98l.08-7.62c.03-2.28-.92-4.41-2.51-5.93ZM144.54,82.85c-.03,3.18-2.65,5.74-5.83,5.71l-6.61-.07c-2.24,11.44-8.84,20.18-19.66,26.02-9.19,4.95-19.34,6.82-26.76,8.19-3.04.56-5.67,1.04-7.35,1.58-.52.16-1.22.69-1.52.98-1.09,1.39-2.76,2.21-4.54,2.21h-.07c-1.81-.02-3.49-.88-4.56-2.31-.3-.3-.99-.84-1.5-1.01-1.67-.57-4.29-1.11-7.32-1.74-7.38-1.52-17.5-3.61-26.57-8.76-10.83-6.15-17.27-15.2-19.17-26.91-.53-.23-1.02-.54-1.46-.92l-7.35-6.39c-1.28-1.11-2-2.72-1.98-4.42l.22-20.57c.02-1.69.78-3.29,2.08-4.37l7.21-6c1.05-.88,2.38-1.35,3.75-1.33l3.05.03c-.98-4.9-3.16-8.93-4.99-12.29l-.48-.88c-.99-1.84-.91-4.08.22-5.84,1.12-1.74,3.09-2.75,5.14-2.66,1.3-.04,6.31-1.72,8.78-4.75,1.63-1.99,2.59-4.93,2.87-8.72.17-2.42,1.84-4.47,4.18-5.14,2.33-.66,4.83.21,6.25,2.17,1.73,2.4,7.7,6.26,11.51,6.3,6.71.07,13.3-2.47,17.18-6.62,1.1-1.18,2.66-1.85,4.28-1.83,1.62.02,3.16.71,4.24,1.92,3.8,4.24,10.32,6.92,17.04,6.99,3.81.04,9.86-3.69,11.64-6.05,1.46-1.94,3.98-2.75,6.3-2.04,2.32.71,3.95,2.8,4.07,5.23.19,3.8,1.09,6.75,2.68,8.78,2.4,3.07,7.35,4.85,8.68,4.93,2.06-.05,4,1,5.07,2.77,1.09,1.79,1.13,4.03.09,5.85l-.49.87c-1.89,3.32-4.16,7.29-5.25,12.17l3.97.04c1.38.02,2.71.53,3.75,1.44l6.16,5.43c1.26,1.11,1.97,2.71,1.95,4.39l-.11,9.84c-.02,1.67-.76,3.26-2.04,4.34l-.41.34c2.23.85,3.74,3.01,3.71,5.45l-.08,7.63Z"/>
        <polygon points="54.15 94.29 54.16 93.54 50.5 93.5 50.46 97.31 54.12 97.35 54.13 96.6 51.21 96.57 51.22 95.72 54.06 95.75 54.06 95.13 51.23 95.1 51.24 94.26 54.15 94.29"/>
        <path d="M80.42,96.33c.16-.03.3-.09.4-.17.1-.08.18-.2.23-.35.05-.15.07-.34.07-.57v-.23c0-.21-.01-.4-.05-.55-.04-.15-.1-.27-.18-.37-.08-.09-.19-.16-.33-.21s-.31-.07-.51-.07l-3.11-.03-.04,3.81h.75s.01-1.24.01-1.24h1.2s1.3,1.27,1.3,1.27h1.05s-1.4-1.26-1.4-1.26c.24,0,.44,0,.6-.04ZM77.67,95.73v-1.18s2.35.03,2.35.03c.16,0,.26.05.31.14.04.09.06.23.06.41v.18c0,.17-.03.28-.09.35s-.15.1-.29.1l-2.34-.03Z"/>
        <polygon points="86.4 87.48 86.28 87.48 86.28 87.41 60.78 87.41 60.78 89.3 60.89 89.3 60.89 89.37 86.4 89.37 86.4 87.48"/>
        <polygon points="85.37 94.63 85.37 93.88 81.71 93.84 81.67 97.65 85.33 97.69 85.34 96.94 82.43 96.91 82.44 96.06 85.27 96.09 85.27 95.47 82.44 95.44 82.45 94.6 85.37 94.63"/>
        <path d="M69.51,96.04c.1-.08.18-.2.23-.35.05-.15.07-.34.08-.57v-.23c0-.22-.01-.4-.05-.55-.04-.15-.1-.27-.18-.37-.08-.09-.19-.16-.33-.21-.14-.04-.31-.07-.51-.07l-3.11-.03-.04,3.81h.75s.01-1.24.01-1.24h1.2s1.31,1.27,1.31,1.27h1.05s-1.4-1.26-1.4-1.26c.24,0,.44-.01.6-.04.16-.03.3-.09.4-.17ZM69.07,95.19c0,.17-.03.28-.09.35-.06.07-.15.1-.29.1l-2.34-.03v-1.18s2.35.03,2.35.03c.16,0,.26.05.31.14.04.09.06.23.06.41v.18Z"/>
        <polygon points="68.13 70.43 61.31 70.36 60.35 73.79 52.61 73.7 52.67 67.96 60.41 68.04 60.47 62.4 52.74 62.31 52.79 56.95 60.53 57.03 61.42 60.48 68.19 60.55 68.31 49.02 39.89 48.71 39.81 55.91 43.3 56.89 43.12 73.6 39.61 74.5 39.54 81.66 68 81.96 68.13 70.43"/>
        <polygon points="60.04 94.36 60.04 93.6 56.47 93.56 56.42 97.38 57.17 97.38 57.19 95.87 59.96 95.9 59.96 95.23 57.19 95.2 57.21 94.33 60.04 94.36"/>
        <polygon points="92.25 97.76 92.28 94.7 93.67 94.72 93.67 93.97 90.15 93.93 90.14 94.68 91.53 94.7 91.5 97.75 92.25 97.76"/>
        <path d="M72.94,94.6c.06-.07.18-.1.36-.1l1.88.02c.15,0,.26.03.33.09.07.06.12.13.16.2l.48-.48c-.02-.05-.06-.11-.1-.18-.04-.06-.1-.13-.17-.18-.07-.06-.16-.11-.27-.15-.1-.04-.22-.06-.36-.06l-1.93-.02c-.24,0-.43.02-.58.06-.15.04-.27.11-.36.21-.09.1-.15.22-.19.38-.04.16-.06.35-.06.58v1.34c-.02.24,0,.44.03.6.03.16.09.28.18.38.09.1.21.17.36.21.15.04.35.06.58.06l1.62.02c.11,0,.2-.01.29-.04s.16-.06.22-.11.11-.09.15-.15c.04-.06.06-.11.08-.17l.02.47h.63s.02-2.21.02-2.21l-2.13-.02v.62s1.42.02,1.42.02v.49c0,.12-.05.21-.13.27-.08.06-.23.09-.44.09l-1.73-.02c-.09,0-.16,0-.22-.02-.06-.01-.1-.04-.14-.08-.03-.04-.06-.1-.07-.18-.01-.08-.02-.18-.02-.32v-1.23c.02-.19.05-.31.11-.38Z"/>
        <polygon points="110.49 43.1 110.6 32.76 108.42 32.74 104.45 40.96 100.67 32.65 98.45 32.63 98.34 42.97 100.2 42.99 100.28 36.23 103.46 43.03 105.34 43.04 108.69 36.32 108.62 43.08 110.49 43.1"/>
        <polygon points="94.93 93.98 94.12 93.97 94.08 97.78 94.8 97.79 94.83 94.98 97.48 97.82 98.22 97.82 98.26 94.01 97.54 94.01 97.51 96.77 94.93 93.98"/>
        <path d="M108.76,94.89l2.58.03c.02-.13.04-.25.05-.38.02-.12.03-.25.05-.38l-2.67-.03c-.23,0-.43.02-.59.06-.16.04-.28.1-.38.18-.1.08-.17.19-.21.33-.04.14-.06.3-.07.49v.13c0,.17.02.33.05.46.04.13.11.24.2.32.09.08.22.15.37.19.15.04.34.06.57.07l1.55.02c.19,0,.33.03.4.1.07.06.11.17.1.33,0,.08-.01.15-.03.2-.02.06-.05.1-.08.13-.04.03-.09.05-.16.07-.07.01-.15.02-.25.02l-2.59-.03c0,.13-.02.25-.03.37-.01.12-.02.25-.03.37l2.69.03c.22,0,.42-.01.58-.05.16-.04.29-.1.39-.18.1-.08.17-.2.22-.34.05-.14.07-.31.07-.51v-.13c0-.17-.02-.31-.06-.44s-.11-.23-.21-.31c-.1-.08-.23-.14-.39-.19-.16-.04-.36-.06-.6-.06l-1.52-.02c-.19,0-.31-.04-.37-.1-.06-.07-.09-.17-.09-.33,0-.15.03-.26.1-.32.07-.06.19-.09.38-.09Z"/>
        <path d="M30.26,45.95c-.36-6.37-2.31-11.64-4.31-15.82,3.59-1.42,7.45-3.79,10.12-7.06,1.43-1.75,2.58-3.76,3.43-6.03,4.02,2.57,8.85,4.48,13.08,4.53,7.95.08,15.65-2.39,21.44-6.76,5.69,4.5,13.34,7.13,21.29,7.22,4.23.04,9.1-1.76,13.17-4.25.81,2.29,1.91,4.33,3.3,6.1,2.6,3.32,6.41,5.78,9.97,7.27-2.09,4.13-4.15,9.35-4.65,15.72l4.83.05c.72-8.29,4.45-14.35,7.01-18.87-.06,0-.13,0-.2,0-2.85-.03-9.63-2.62-13.17-7.15-2.22-2.83-3.63-6.78-3.9-12.05-2.81,3.72-10.53,8.41-16.31,8.34-7.83-.08-16.07-3.1-21.27-8.91-5.32,5.7-13.63,8.53-21.46,8.45-5.79-.06-13.4-4.91-16.13-8.69-.38,5.25-1.88,9.17-4.16,11.96-3.64,4.45-10.47,6.89-13.32,6.86-.07,0-.14,0-.2,0,2.46,4.57,6.06,10.71,6.6,19.01l4.83.05Z"/>
        <path d="M104.93,75.25l-3.95-.99-5.95-24.96-18.61-.2-.08,7.2,2.98.97-4.88,16.66-3.56.9-.08,7.15,13.82.15.08-7.15-2.25-.97.82-2.91,6.95.08.8,2.93-2.45.92-.08,7.15,16.35.18.08-7.11ZM84.67,65.48l2.11-7.37,1.99,7.41-4.1-.04Z"/>
        <polygon points="102.56 94.81 102.57 94.06 98.91 94.02 98.87 97.83 102.53 97.87 102.54 97.12 99.62 97.09 99.63 96.24 102.46 96.27 102.47 95.65 99.64 95.62 99.65 94.78 102.56 94.81"/>
        <path d="M106.17,97.08s-.09.05-.16.07c-.07.01-.15.02-.25.02l-2.59-.03c0,.13-.02.25-.03.37-.01.12-.02.25-.03.37l2.69.03c.22,0,.42-.01.58-.05.16-.04.29-.1.38-.18.1-.08.17-.2.22-.34.05-.14.07-.31.07-.51v-.13c0-.17-.02-.31-.06-.44s-.11-.23-.21-.31c-.1-.08-.23-.14-.39-.19-.16-.04-.36-.06-.6-.06l-1.52-.02c-.18,0-.31-.04-.37-.1-.06-.07-.09-.17-.09-.33,0-.15.03-.26.1-.32.07-.06.19-.09.38-.09l2.58.03c.02-.13.04-.25.05-.38.02-.12.03-.25.05-.38l-2.67-.03c-.23,0-.43.02-.59.06-.16.04-.28.1-.38.18s-.17.19-.21.33c-.04.14-.06.3-.07.49v.13c0,.17.02.33.06.46.04.13.11.24.2.32.09.08.22.15.37.19.15.04.34.06.57.07l1.54.02c.19,0,.33.03.4.1.07.06.1.17.1.33,0,.08,0,.15-.03.2-.02.06-.05.1-.08.13Z"/>
        <path d="M49.24,93.55c-.15-.04-.35-.06-.58-.07l-3.21-.03-.04,3.81,3.21.03c.23,0,.43-.02.58-.05.15-.04.27-.11.37-.2.09-.09.16-.22.2-.38.04-.16.06-.35.06-.59v-1.34c.02-.23,0-.43-.04-.58-.04-.16-.1-.28-.19-.38-.09-.1-.21-.17-.36-.21ZM49.08,96.07c0,.19-.04.32-.1.38-.07.07-.18.1-.35.1l-2.45-.03.02-2.31,2.45.03c.17,0,.28.04.35.11.07.07.1.2.1.39v1.34Z"/>
        <path d="M65.4,34.33l6.99.08c.05-.35.1-.69.15-1.03.04-.34.09-.68.13-1.03l-7.24-.08c-.63,0-1.16.04-1.59.15-.43.11-.77.27-1.04.5-.26.23-.45.53-.57.9-.11.37-.17.81-.18,1.32v.35c0,.47.04.88.15,1.23.11.35.29.64.54.88.25.23.59.41,1,.52s.93.17,1.55.18l4.19.05c.53,0,.89.09,1.08.26.19.17.28.47.27.9,0,.22-.03.4-.07.55-.05.14-.12.26-.23.35-.11.09-.25.15-.44.18-.19.03-.41.05-.69.05l-7.03-.08c-.03.34-.05.68-.08,1.01-.03.33-.05.67-.08,1.01l7.31.08c.61,0,1.13-.04,1.56-.14.43-.1.78-.27,1.05-.5.27-.23.47-.54.59-.92s.19-.85.19-1.4v-.36c0-.45-.05-.85-.16-1.18-.12-.34-.31-.62-.58-.84-.27-.22-.62-.39-1.06-.5-.44-.11-.98-.17-1.62-.17l-4.13-.05c-.5,0-.84-.1-1.01-.27-.17-.18-.26-.47-.25-.88,0-.41.1-.7.27-.87.18-.17.52-.25,1.02-.24Z"/>
        <path d="M86.99,96.82l2.3.03.47.89h.85s-2.05-3.82-2.05-3.82h-.78s-2.13,3.78-2.13,3.78h.85s.49-.87.49-.87ZM88.16,94.65l.85,1.59-1.73-.02.88-1.57Z"/>
        <path d="M38.48,34.31c.18-.19.5-.28.95-.27l5.65.06c.39,0,.69.09.88.26s.34.35.43.55l1.31-1.31c-.06-.14-.15-.3-.27-.47-.12-.18-.28-.34-.47-.5-.2-.16-.44-.29-.73-.4-.28-.11-.62-.17-1-.17l-5.8-.06c-.62,0-1.14.04-1.55.14-.41.1-.74.28-.99.54-.25.26-.43.6-.54,1.03-.11.43-.17.96-.17,1.61l-.04,3.64c0,.64.04,1.18.14,1.61.1.43.27.78.52,1.04.24.26.57.44.98.56s.93.18,1.55.18l5.86.06c.38,0,.71-.05,1-.15.29-.1.53-.23.73-.38.2-.15.36-.32.49-.49.12-.17.21-.33.27-.47l-1.28-1.32c-.09.2-.23.38-.43.55s-.49.24-.89.24l-5.73-.06c-.26,0-.47-.03-.63-.09-.16-.06-.28-.14-.37-.25-.08-.11-.14-.25-.17-.41-.03-.16-.04-.35-.04-.57l.04-3.65c0-.49.1-.83.28-1.02Z"/>
        <path d="M86.32,42.68c.41.11.93.17,1.56.18l5.46.06c.61,0,1.13-.04,1.54-.15.42-.11.75-.29,1.01-.55.25-.26.44-.6.55-1.03.11-.43.17-.96.17-1.59l.04-3.64c0-.63-.04-1.16-.14-1.6-.1-.43-.27-.78-.52-1.04-.25-.26-.58-.45-.99-.57s-.93-.18-1.54-.18l-5.46-.06c-.63,0-1.15.04-1.56.15-.41.11-.74.29-1,.55-.25.26-.43.6-.54,1.03s-.16.96-.17,1.59l-.04,3.64c0,.63.04,1.16.13,1.59.09.43.27.78.52,1.04.25.26.58.45.99.57ZM86.73,35.87c0-.51.1-.86.28-1.04.18-.18.5-.27.95-.27l5.44.06c.45,0,.77.1.94.29.18.19.26.54.26,1.05l-.04,3.64c0,.51-.1.86-.27,1.03-.18.18-.5.27-.96.26l-5.44-.06c-.23,0-.42-.02-.58-.07-.16-.04-.28-.11-.37-.21-.09-.1-.16-.23-.2-.4-.04-.17-.06-.38-.05-.64l.04-3.64Z"/>
        <polygon points="79.66 42.77 79.74 34.47 83.52 34.51 83.54 32.47 73.96 32.37 73.94 34.41 77.71 34.45 77.63 42.75 79.66 42.77"/>
        <path d="M60.79,97.16c.09.1.21.17.36.21.15.04.34.06.58.07l2.01.02c.23,0,.41-.02.57-.05.15-.04.27-.11.37-.2.09-.09.16-.22.2-.38.04-.16.06-.35.06-.59v-1.34c.02-.23,0-.43-.04-.59-.04-.16-.1-.29-.19-.38-.09-.1-.21-.17-.37-.21-.15-.04-.34-.06-.57-.07l-2.01-.02c-.23,0-.42.02-.58.06-.15.04-.27.11-.37.2-.09.09-.16.22-.2.38-.04.16-.06.35-.06.59v1.34c-.02.23,0,.43.04.59.03.16.1.29.19.38ZM61.3,94.86c0-.19.04-.32.1-.38.07-.07.18-.1.35-.1l2,.02c.17,0,.28.04.35.11.07.07.1.2.1.39v1.34c-.02.19-.05.32-.12.38-.07.07-.18.1-.35.1l-2-.02c-.09,0-.16,0-.21-.02-.06-.02-.1-.04-.14-.08-.03-.04-.06-.09-.07-.15-.01-.06-.02-.14-.02-.24v-1.34Z"/>
        <path d="M49.3,32.1l-.08,7.07c0,.59.04,1.09.15,1.5.11.41.28.75.52,1.02.24.27.56.47.96.59.4.12.88.19,1.45.19l5.05.05c.57,0,1.06-.05,1.46-.16.4-.11.73-.3.98-.57.25-.26.43-.6.55-1.01s.17-.91.18-1.5l.08-7.07-2.03-.02-.08,7.06c0,.44-.09.76-.26.95-.17.19-.45.29-.85.28l-5.05-.05c-.4,0-.68-.11-.85-.3-.16-.2-.24-.52-.24-.96l.08-7.06-2.01-.02Z"/>
        <path d="M133.47,68.88l4.6-3.91.11-9.84-6.16-5.43-23.95-.26-.08,7.2,3.49.98-.18,16.71-3.51.9-.08,7.15,16.54.18.08-7.15-3.49-.98.05-4.75,2.39.03,7.23,12.93,8.75.09.08-7.62-2.44-.5-3.44-5.73ZM128.61,62.23l-1.12.94-6.54-.07.06-5.41,6.54.07,1.1.96-.04,3.51Z"/>
        <path d="M40.07,97.2h.85s.49-.87.49-.87l2.3.03.47.89h.85s-2.05-3.82-2.05-3.82h-.78s-2.13,3.78-2.13,3.78ZM43.43,95.75l-1.73-.02.88-1.57.85,1.59Z"/>
        <path d="M108.03,105.2c-7.72,4.16-16.55,5.79-23.65,7.1-3.4.63-6.33,1.17-8.64,1.9-.99.31-1.94.76-2.8,1.27-.85-.53-1.78-1-2.77-1.33-2.3-.79-5.22-1.39-8.6-2.09-7.07-1.46-15.87-3.28-23.49-7.6-8.24-4.67-12.88-11.32-14.08-20.24l-4.85-.05c1.43,12.16,8.2,19.73,16.56,24.47,12.01,6.81,26.42,7.84,32.91,10.06,2.17.74,3.97,2.55,4.25,3.02.29-.45,2.14-2.23,4.32-2.92,6.53-2.08,20.96-2.79,33.12-9.35,8.45-4.56,15.39-11.99,17.08-24.11l-4.85-.05c-1.4,8.88-6.18,15.44-14.51,19.93Z"/>
        <polygon points="27.49 78.94 28.39 81.54 35.62 81.62 35.83 62.13 22.01 61.98 21.95 67.63 26.28 67.68 26.23 72.2 24.79 73.41 19.45 73.35 18.08 72.2 18.23 57.66 19.58 56.59 26.4 56.66 27.28 60.11 35.85 60.2 35.92 54.01 29.66 48.6 15.98 48.46 8.78 54.45 8.56 75.02 15.91 81.41 24.43 81.5 27.49 78.94"/>
        <polygon points="39.68 97.2 39.72 93.39 38.92 93.38 37.46 96.41 36.07 93.35 35.25 93.34 35.21 97.15 35.9 97.16 35.92 94.66 37.1 97.17 37.79 97.18 39.02 94.7 39 97.19 39.68 97.2"/>
      </g>
      <g>
        <path d="M185.57,84.59c-2.75,0-5.31-.52-7.7-1.56-2.38-1.04-4.46-2.46-6.23-4.27-1.77-1.81-3.17-3.9-4.19-6.28-1.02-2.38-1.54-4.91-1.54-7.6s.51-5.22,1.54-7.6c1.02-2.38,2.42-4.48,4.19-6.28,1.77-1.81,3.85-3.23,6.23-4.27,2.38-1.04,4.95-1.56,7.7-1.56,2.49,0,4.89.46,7.19,1.37,2.3.91,4.43,2.23,6.38,3.96l-7.67,6.71c-1.85-1.31-3.8-1.97-5.85-1.97-1.34,0-2.59.26-3.74.77-1.15.51-2.14,1.21-2.97,2.11-.83.9-1.49,1.93-1.97,3.09-.48,1.17-.72,2.39-.72,3.67s.24,2.55.72,3.72c.48,1.17,1.13,2.19,1.97,3.07.83.88,1.81,1.58,2.95,2.11,1.13.53,2.37.79,3.72.79,1.53,0,2.96-.35,4.29-1.06,1.33-.7,2.48-1.69,3.48-2.97l7.91,6.43c-1.98,2.43-4.32,4.31-7.02,5.63-2.7,1.33-5.59,1.99-8.65,1.99Z"/>
        <path d="M233.61,69.82c0,1.69-.28,3.29-.84,4.79-.56,1.5-1.34,2.86-2.35,4.08-1.01,1.21-2.2,2.26-3.57,3.14-1.37.88-2.86,1.56-4.46,2.04-.7.22-1.42.4-2.16.53-.74.13-1.47.19-2.21.19s-1.46-.06-2.18-.19c-.72-.13-1.43-.3-2.13-.53-1.6-.48-3.08-1.16-4.46-2.04-1.37-.88-2.56-1.93-3.57-3.14s-1.79-2.57-2.35-4.08c-.56-1.5-.84-3.1-.84-4.79v-23.59h10.36v22.97c0,.7.14,1.35.43,1.94.29.59.67,1.1,1.15,1.53.48.43,1.03.77,1.65,1.01.62.24,1.27.36,1.94.36s1.37-.12,1.99-.36,1.17-.58,1.65-1.01c.48-.43.86-.94,1.15-1.53.29-.59.43-1.24.43-1.94v-22.97h10.36v23.59Z"/>
        <path d="M253.85,84.59c-2.49,0-4.96-.29-7.41-.88-2.45-.59-4.79-1.41-7.02-2.46-.06,0-.22-.06-.48-.19-.26-.16-.38-.27-.38-.33,0-.03.06-.16.19-.38.13-.22.29-.5.48-.83.19-.33.42-.71.67-1.14.26-.43.51-.87.77-1.31.54-.89,1.05-1.73,1.53-2.53.48-.8.82-1.37,1.01-1.73.42.16.82.35,1.2.58,1.73.86,3.46,1.53,5.2,1.99s3.59.7,5.54.7c.54,0,1.13-.02,1.75-.07.62-.05,1.19-.17,1.7-.36s.94-.49,1.27-.89c.34-.4.5-.97.5-1.7,0-.35-.1-.66-.29-.94-.19-.27-.43-.51-.72-.72-.29-.21-.59-.39-.91-.55-.32-.16-.62-.29-.91-.39-.67-.26-1.36-.45-2.06-.58-.7-.13-1.41-.27-2.11-.43-.93-.22-1.84-.43-2.73-.62-.9-.19-1.76-.42-2.59-.67-.86-.26-1.69-.54-2.47-.84-.78-.3-1.51-.66-2.18-1.08-1.37-.83-2.47-1.94-3.28-3.34-.82-1.39-1.22-3.24-1.22-5.55,0-.8.09-1.61.26-2.42.18-.82.44-1.59.79-2.33.7-1.47,1.61-2.69,2.73-3.65,1.12-.96,2.36-1.71,3.72-2.26,1.36-.54,2.79-.93,4.29-1.15,1.5-.22,3-.34,4.51-.34,2.46,0,4.89.3,7.29.89,2.4.59,4.68,1.57,6.86,2.92-.8,1.35-1.57,2.68-2.32,3.98-.75,1.3-1.51,2.62-2.28,3.96-1.85-.89-3.65-1.63-5.39-2.21-1.74-.58-3.62-.86-5.63-.86-.48,0-.98.02-1.51.07-.53.05-1.01.17-1.46.36-.45.19-.82.47-1.1.84-.29.37-.43.85-.43,1.46,0,.45.1.83.29,1.15.22.35.63.66,1.22.93.59.27,1.32.52,2.18.74.86.22,1.81.44,2.83.65,1.02.21,2.09.45,3.21.74,1.09.29,2.18.61,3.28.98,1.1.37,2.14.81,3.12,1.34.97.53,1.85,1.15,2.61,1.87s1.37,1.57,1.82,2.56c.35.73.59,1.52.72,2.37.13.85.19,1.68.19,2.51,0,2.43-.5,4.42-1.49,5.98-.99,1.56-2.29,2.8-3.88,3.71-1.6.91-3.4,1.55-5.42,1.92-2.01.37-4.03.55-6.04.55Z"/>
        <path d="M304.72,55.43h-10.21v28h-10.12v-28h-10.21l-.67-.67v-8.53h31.88v8.53l-.67.67Z"/>
        <path d="M325.43,84.59c-2.75,0-5.32-.51-7.72-1.54-2.4-1.02-4.49-2.42-6.28-4.19-1.79-1.77-3.2-3.86-4.24-6.26-1.04-2.4-1.56-4.95-1.56-7.67s.52-5.27,1.56-7.67c1.04-2.4,2.45-4.48,4.24-6.26,1.79-1.77,3.88-3.18,6.28-4.22,2.4-1.04,4.97-1.56,7.72-1.56s5.28.52,7.7,1.56c2.41,1.04,4.51,2.45,6.31,4.22,1.79,1.77,3.2,3.86,4.24,6.26,1.04,2.4,1.56,4.96,1.56,7.67s-.52,5.27-1.56,7.67c-1.04,2.4-2.45,4.48-4.24,6.26-1.79,1.77-3.89,3.17-6.31,4.19-2.41,1.02-4.98,1.54-7.7,1.54ZM325.43,54.72c-1.41,0-2.71.28-3.91.84-1.2.56-2.23,1.3-3.09,2.23-.86.93-1.54,2.01-2.04,3.24-.5,1.23-.74,2.53-.74,3.91s.25,2.64.74,3.88c.49,1.25,1.17,2.33,2.04,3.26.86.93,1.89,1.67,3.09,2.23,1.2.56,2.5.84,3.91.84s2.71-.28,3.91-.84c1.2-.56,2.23-1.3,3.09-2.23.86-.93,1.54-2.01,2.04-3.26.5-1.25.74-2.54.74-3.88s-.25-2.68-.74-3.91c-.5-1.23-1.17-2.31-2.04-3.24-.86-.93-1.89-1.67-3.09-2.23-1.2-.56-2.5-.84-3.91-.84Z"/>
        <path d="M378.56,83.44v-19.13l-7.96,13.14c-.1.19-.26.32-.48.38-.22.06-.42.1-.58.1-.19,0-.4-.03-.62-.1s-.38-.19-.48-.38l-7.96-13.14v19.13h-9.73v-37.21h9.11c.32,0,.59.14.82.43l8.82,14.72,8.87-14.72c.22-.29.48-.43.77-.43h9.16v37.21h-9.73Z"/>
        <path d="M420.46,83.44v-1.06c-2.88,1.47-5.91,2.21-9.11,2.21-2.78,0-5.36-.51-7.74-1.54-2.38-1.02-4.45-2.42-6.21-4.19-1.76-1.77-3.13-3.85-4.12-6.23-.99-2.38-1.49-4.95-1.49-7.7s.5-5.23,1.51-7.62,2.4-4.5,4.17-6.31c1.77-1.81,3.85-3.23,6.23-4.27,2.38-1.04,4.95-1.56,7.7-1.56,2.94,0,5.73.63,8.37,1.89,2.64,1.26,4.93,3.04,6.88,5.35l-8.15,5.42c-.99-.99-2.09-1.75-3.28-2.28-1.2-.53-2.47-.79-3.81-.79s-2.71.28-3.91.84c-1.2.56-2.24,1.3-3.12,2.23-.88.93-1.57,2.01-2.06,3.24s-.74,2.53-.74,3.91.25,2.69.74,3.93c.5,1.25,1.19,2.33,2.09,3.26.9.93,1.94,1.67,3.14,2.23,1.2.56,2.5.84,3.91.84,1.5,0,2.93-.34,4.29-1.01,1.36-.67,2.5-1.61,3.43-2.83h-6.57v-8.97h16.35v21h-8.49Z"/>
        <path d="M434.99,83.44v-37.21h29.68v8.87h-19.99v5.32h18.84v8.87h-18.84v5.32h19.99v8.82h-29.68Z"/>
        <path d="M494.4,83.44l-1.92-5.13h-11.46l-1.92,5.13h-10.5l13.76-37.21h8.77l13.76,37.21h-10.5ZM486.77,59.8l-2.97,9.83h5.9l-2.93-9.83Z"/>
        <path d="M532.47,83.44l-6.47-11.51h-6.28l.05,11.51h-10.26v-37.21h18.65c.89,0,1.81.17,2.73.5.93.34,1.82.78,2.69,1.34.86.56,1.66,1.19,2.4,1.89.73.7,1.36,1.42,1.87,2.16.64.93,1.13,2.01,1.46,3.24.34,1.23.5,2.41.5,3.52,0,1.85-.43,3.58-1.3,5.18-.86,1.6-2.06,2.94-3.6,4.03l8.73,15.34h-11.17ZM525.23,54.52h-5.8v8.01h5.8c.58,0,1.12-.1,1.63-.31.51-.21.96-.49,1.34-.86.38-.37.69-.79.91-1.26s.34-1,.34-1.57-.11-1.1-.34-1.57c-.22-.48-.53-.9-.91-1.26-.38-.37-.83-.65-1.34-.86-.51-.21-1.06-.31-1.63-.31Z"/>
        <path d="M553.47,84.59c-.61,0-1.19-.11-1.75-.34-.56-.22-1.05-.54-1.46-.93-.42-.4-.74-.86-.98-1.39-.24-.53-.36-1.11-.36-1.75s.12-1.18.36-1.73.57-1.02.98-1.44c.42-.42.9-.74,1.46-.96s1.14-.34,1.75-.34,1.19.11,1.75.34c.56.22,1.05.54,1.46.96.41.42.74.89.98,1.44s.36,1.12.36,1.73c0,1.25-.45,2.29-1.34,3.14-.9.85-1.97,1.27-3.21,1.27Z"/>
        <path d="M579.12,84.59c-2.75,0-5.31-.52-7.7-1.56-2.38-1.04-4.46-2.46-6.23-4.27-1.77-1.81-3.17-3.9-4.19-6.28-1.02-2.38-1.54-4.91-1.54-7.6s.51-5.22,1.54-7.6c1.02-2.38,2.42-4.48,4.19-6.28,1.77-1.81,3.85-3.23,6.23-4.27,2.38-1.04,4.95-1.56,7.7-1.56,2.49,0,4.89.46,7.19,1.37,2.3.91,4.43,2.23,6.38,3.96l-7.67,6.71c-1.85-1.31-3.8-1.97-5.85-1.97-1.34,0-2.59.26-3.74.77-1.15.51-2.14,1.21-2.97,2.11-.83.9-1.49,1.93-1.97,3.09-.48,1.17-.72,2.39-.72,3.67s.24,2.55.72,3.72c.48,1.17,1.13,2.19,1.97,3.07.83.88,1.81,1.58,2.95,2.11,1.13.53,2.37.79,3.72.79,1.53,0,2.96-.35,4.29-1.06,1.33-.7,2.48-1.69,3.48-2.97l7.91,6.43c-1.98,2.43-4.33,4.31-7.03,5.63-2.7,1.33-5.59,1.99-8.65,1.99Z"/>
        <path d="M621.84,83.44l-1.92-5.13h-11.46l-1.92,5.13h-10.5l13.76-37.21h8.78l13.76,37.21h-10.5ZM614.22,59.8l-2.97,9.83h5.9l-2.92-9.83Z"/>
      </g>
    </g>
  </g>
</svg>